ffmpeg started on 2025-05-24 at 15:17:29
Report written to "D:\Convert\FFMetrics\reports\psnr_report-6.txt"
Log level: 32
Command line:
ffmpeg -hide_banner -nostdin -i "G:\\\xc0\xed\xe8\xec\xe5\\\xce\xed\xe3\xee\xe8\xed\xe3\xe8\\!_33_\xc7\xe8\xec\xe0_2024\\DreamCast\\\xcd\xe5\xf0\xe0\xe7\xf3\xec\xed\xfb\xe9 \xe0\xed\xe3\xe5\xeb \xe2 \xf2\xe0\xed\xf6\xe5 \xf1 \xe4\xe5\xec\xee\xed\xee\xec\\[DC] Oroka na Tenshi wa Akuma to Odoru - 10_Telegram_HEVC.mkv" -i "G:\\\xc0\xed\xe8\xec\xe5\\\xce\xed\xe3\xee\xe8\xed\xe3\xe8\\!_33_\xc7\xe8\xec\xe0_2024\\DreamCast\\\xcd\xe5\xf0\xe0\xe7\xf3\xec\xed\xfb\xe9 \xe0\xed\xe3\xe5\xeb \xe2 \xf2\xe0\xed\xf6\xe5 \xf1 \xe4\xe5\xec\xee\xed\xee\xec\\[DC] Oroka na Tenshi wa Akuma to Odoru - 10_Telegram.mp4" -lavfi "[0:v]settb=AVTB,setpts=PTS-STARTPTS,format=pix_fmts=yuv420p10,fps=24000/1001,scale=1920:1080:flags=bicubic[main];[1:v]settb=AVTB,setpts=PTS-STARTPTS,format=pix_fmts=yuv420p,fps=24000/1001,scale=1920:1080:flags=bicubic[ref];[main][ref]psnr=eof_action=endall:stats_file='D\\:/Convert/FFMetrics/logs/psnr_logfile-6.txt'" -f null -
Input #0, matroska,webm, from 'G:\Аниме\Онгоинги\!_33_Зима_2024\DreamCast\Неразумный ангел в танце с демоном\[DC] Oroka na Tenshi wa Akuma to Odoru - 10_Telegram_HEVC.mkv':
  Metadata:
    COMPATIBLE_BRANDS: isomiso2avc1mp41
    MAJOR_BRAND     : isom
    MINOR_VERSION   : 512
    ENCODER         : Lavf61.7.100
  Duration: 00:23:46.73, start: -0.021000, bitrate: 1220 kb/s
  Stream #0:0: Video: hevc (Main 10), yuv420p10le(tv, bt709, progressive), 1920x1080 [SAR 1:1 DAR 16:9], 23.98 fps, 23.98 tbr, 1k tbn (default)
      Metadata:
        HANDLER_NAME    : VideoHandler
        VENDOR_ID       : [0][0][0][0]
        ENCODER         : Lavc61.19.100 libx265
        BPS             : 1022035
        DURATION        : 00:23:46.633708333
        NUMBER_OF_FRAMES: 34205
        NUMBER_OF_BYTES : 182258695
        _STATISTICS_WRITING_APP: mkvpropedit v66.0.0 ('Josie') 64-bit
        _STATISTICS_WRITING_DATE_UTC: 2025-05-23 16:31:03
        _STATISTICS_TAGS: BPS DURATION NUMBER_OF_FRAMES NUMBER_OF_BYTES
  Stream #0:1: Audio: aac (LC), 48000 Hz, stereo, fltp (default)
      Metadata:
        HANDLER_NAME    : SoundHandler
        VENDOR_ID       : [0][0][0][0]
        ENCODER         : Lavc61.19.100 aac
        BPS             : 194147
        DURATION        : 00:23:46.730000000
        NUMBER_OF_FRAMES: 66879
        NUMBER_OF_BYTES : 34624442
        _STATISTICS_WRITING_APP: mkvpropedit v66.0.0 ('Josie') 64-bit
        _STATISTICS_WRITING_DATE_UTC: 2025-05-23 16:31:03
        _STATISTICS_TAGS: BPS DURATION NUMBER_OF_FRAMES NUMBER_OF_BYTES
Input #1, mov,mp4,m4a,3gp,3g2,mj2, from 'G:\Аниме\Онгоинги\!_33_Зима_2024\DreamCast\Неразумный ангел в танце с демоном\[DC] Oroka na Tenshi wa Akuma to Odoru - 10_Telegram.mp4':
  Metadata:
    major_brand     : isom
    minor_version   : 512
    compatible_brands: isomiso2avc1mp41
    encoder         : Lavf60.16.100
  Duration: 00:23:46.70, start: 0.000000, bitrate: 3928 kb/s
  Stream #1:0[0x1](und): Video: h264 (High) (avc1 / 0x31637661), yuv420p(tv, bt709, progressive), 1920x1080 [SAR 1:1 DAR 16:9], 3780 kb/s, 23.98 fps, 23.98 tbr, 24k tbn (default)
      Metadata:
        handler_name    : VideoHandler
        vendor_id       : [0][0][0][0]
        encoder         : Lavc60.31.102 h264_qsv
  Stream #1:1[0x2](und): Audio: aac (HE-AACv2) (mp4a / 0x6134706D), 48000 Hz, stereo, fltp, 144 kb/s (default)
      Metadata:
        handler_name    : SoundHandler
        vendor_id       : [0][0][0][0]
Stream mapping:
  Stream #0:0 (hevc) -> settb:default
  Stream #1:0 (h264) -> settb:default
  psnr:default -> Stream #0:0 (wrapped_avframe)
  Stream #0:1 -> #0:1 (aac (native) -> pcm_s16le (native))
Output #0, null, to 'pipe:':
  Metadata:
    COMPATIBLE_BRANDS: isomiso2avc1mp41
    MAJOR_BRAND     : isom
    MINOR_VERSION   : 512
    encoder         : Lavf61.7.100
  Stream #0:0: Video: wrapped_avframe, yuv420p10le(tv, bt709, progressive), 1920x1080 [SAR 1:1 DAR 16:9], q=2-31, 200 kb/s, 23.98 fps, 23.98 tbn
      Metadata:
        encoder         : Lavc61.19.100 wrapped_avframe
  Stream #0:1: Audio: pcm_s16le, 48000 Hz, stereo, s16, 1536 kb/s (default)
      Metadata:
        HANDLER_NAME    : SoundHandler
        VENDOR_ID       : [0][0][0][0]
        _STATISTICS_TAGS: BPS DURATION NUMBER_OF_FRAMES NUMBER_OF_BYTES
        BPS             : 194147
        DURATION        : 00:23:46.730000000
        NUMBER_OF_FRAMES: 66879
        NUMBER_OF_BYTES : 34624442
        _STATISTICS_WRITING_APP: mkvpropedit v66.0.0 ('Josie') 64-bit
        _STATISTICS_WRITING_DATE_UTC: 2025-05-23 16:31:03
        encoder         : Lavc61.19.100 pcm_s16le
frame=  196 fps=0.0 q=-0.0 size=N/A time=00:00:08.17 bitrate=N/A speed=15.5x    frame=  463 fps=447 q=-0.0 size=N/A time=00:00:19.31 bitrate=N/A speed=18.7x    frame=  714 fps=462 q=-0.0 size=N/A time=00:00:29.77 bitrate=N/A speed=19.3x    frame=  941 fps=454 q=-0.0 size=N/A time=00:00:39.24 bitrate=N/A speed=18.9x    frame= 1204 fps=467 q=-0.0 size=N/A time=00:00:50.21 bitrate=N/A speed=19.5x    frame= 1497 fps=482 q=-0.0 size=N/A time=00:01:02.43 bitrate=N/A speed=20.1x    frame= 1755 fps=485 q=-0.0 size=N/A time=00:01:13.19 bitrate=N/A speed=20.2x    frame= 2024 fps=491 q=-0.0 size=N/A time=00:01:24.41 bitrate=N/A speed=20.5x    frame= 2308 fps=496 q=-0.0 size=N/A time=00:01:36.26 bitrate=N/A speed=20.7x    frame= 2569 fps=497 q=-0.0 size=N/A time=00:01:47.14 bitrate=N/A speed=20.7x    frame= 2841 fps=501 q=-0.0 size=N/A time=00:01:58.49 bitrate=N/A speed=20.9x    frame= 3103 fps=501 q=-0.0 size=N/A time=00:02:09.42 bitrate=N/A speed=20.9x    frame= 3358 fps=501 q=-0.0 size=N/A time=00:02:20.09 bitrate=N/A speed=20.9x    frame= 3618 fps=501 q=-0.0 size=N/A time=00:02:30.90 bitrate=N/A speed=20.9x    frame= 3853 fps=498 q=-0.0 size=N/A time=00:02:40.70 bitrate=N/A speed=20.8x    frame= 4094 fps=496 q=-0.0 size=N/A time=00:02:50.75 bitrate=N/A speed=20.7x    frame= 4326 fps=494 q=-0.0 size=N/A time=00:03:00.43 bitrate=N/A speed=20.6x    frame= 4526 fps=487 q=-0.0 size=N/A time=00:03:08.77 bitrate=N/A speed=20.3x    frame= 4741 fps=484 q=-0.0 size=N/A time=00:03:17.73 bitrate=N/A speed=20.2x    frame= 4947 fps=480 q=-0.0 size=N/A time=00:03:26.33 bitrate=N/A speed=  20x    frame= 5182 fps=478 q=-0.0 size=N/A time=00:03:36.13 bitrate=N/A speed=19.9x    frame= 5403 fps=476 q=-0.0 size=N/A time=00:03:45.35 bitrate=N/A speed=19.9x    frame= 5561 fps=469 q=-0.0 size=N/A time=00:03:51.94 bitrate=N/A speed=19.6x    frame= 5751 fps=464 q=-0.0 size=N/A time=00:03:59.86 bitrate=N/A speed=19.4x    frame= 6014 fps=466 q=-0.0 size=N/A time=00:04:10.83 bitrate=N/A speed=19.5x    frame= 6263 fps=467 q=-0.0 size=N/A time=00:04:21.21 bitrate=N/A speed=19.5x    frame= 6527 fps=469 q=-0.0 size=N/A time=00:04:32.23 bitrate=N/A speed=19.5x    frame= 6782 fps=470 q=-0.0 size=N/A time=00:04:42.86 bitrate=N/A speed=19.6x    frame= 7035 fps=471 q=-0.0 size=N/A time=00:04:53.41 bitrate=N/A speed=19.6x    frame= 7316 fps=473 q=-0.0 size=N/A time=00:05:05.13 bitrate=N/A speed=19.7x    frame= 7588 fps=475 q=-0.0 size=N/A time=00:05:16.48 bitrate=N/A speed=19.8x    frame= 7859 fps=476 q=-0.0 size=N/A time=00:05:27.78 bitrate=N/A speed=19.9x    frame= 8115 fps=477 q=-0.0 size=N/A time=00:05:38.46 bitrate=N/A speed=19.9x    frame= 8330 fps=475 q=-0.0 size=N/A time=00:05:47.43 bitrate=N/A speed=19.8x    frame= 8584 fps=476 q=-0.0 size=N/A time=00:05:58.02 bitrate=N/A speed=19.8x    frame= 8846 fps=476 q=-0.0 size=N/A time=00:06:08.95 bitrate=N/A speed=19.9x    frame= 9104 fps=477 q=-0.0 size=N/A time=00:06:19.71 bitrate=N/A speed=19.9x    frame= 9361 fps=478 q=-0.0 size=N/A time=00:06:30.43 bitrate=N/A speed=19.9x    frame= 9656 fps=480 q=-0.0 size=N/A time=00:06:42.73 bitrate=N/A speed=  20x    frame= 9852 fps=478 q=-0.0 size=N/A time=00:06:50.91 bitrate=N/A speed=19.9x    frame=10048 fps=475 q=-0.0 size=N/A time=00:06:59.08 bitrate=N/A speed=19.8x    frame=10317 fps=476 q=-0.0 size=N/A time=00:07:10.30 bitrate=N/A speed=19.9x    frame=10591 fps=478 q=-0.0 size=N/A time=00:07:21.73 bitrate=N/A speed=19.9x    frame=10842 fps=478 q=-0.0 size=N/A time=00:07:32.20 bitrate=N/A speed=19.9x    frame=11088 fps=478 q=-0.0 size=N/A time=00:07:42.46 bitrate=N/A speed=19.9x    frame=11364 fps=479 q=-0.0 size=N/A time=00:07:53.97 bitrate=N/A speed=  20x    frame=11626 fps=480 q=-0.0 size=N/A time=00:08:04.90 bitrate=N/A speed=  20x    frame=11846 fps=479 q=-0.0 size=N/A time=00:08:14.07 bitrate=N/A speed=  20x    frame=12062 fps=477 q=-0.0 size=N/A time=00:08:23.08 bitrate=N/A speed=19.9x    frame=12264 fps=476 q=-0.0 size=N/A time=00:08:31.51 bitrate=N/A speed=19.8x    frame=12483 fps=475 q=-0.0 size=N/A time=00:08:40.64 bitrate=N/A speed=19.8x    frame=12703 fps=474 q=-0.0 size=N/A time=00:08:49.82 bitrate=N/A speed=19.8x    frame=12954 fps=474 q=-0.0 size=N/A time=00:09:00.28 bitrate=N/A speed=19.8x    frame=13216 fps=475 q=-0.0 size=N/A time=00:09:11.21 bitrate=N/A speed=19.8x    frame=13482 fps=475 q=-0.0 size=N/A time=00:09:22.31 bitrate=N/A speed=19.8x    frame=13730 fps=475 q=-0.0 size=N/A time=00:09:32.65 bitrate=N/A speed=19.8x    frame=13989 fps=476 q=-0.0 size=N/A time=00:09:43.45 bitrate=N/A speed=19.9x    frame=14168 fps=474 q=-0.0 size=N/A time=00:09:50.92 bitrate=N/A speed=19.8x    frame=14422 fps=474 q=-0.0 size=N/A time=00:10:01.51 bitrate=N/A speed=19.8x    frame=14689 fps=475 q=-0.0 size=N/A time=00:10:12.65 bitrate=N/A speed=19.8x    frame=14935 fps=475 q=-0.0 size=N/A time=00:10:22.91 bitrate=N/A speed=19.8x    frame=15201 fps=475 q=-0.0 size=N/A time=00:10:34.00 bitrate=N/A speed=19.8x    frame=15464 fps=476 q=-0.0 size=N/A time=00:10:44.97 bitrate=N/A speed=19.9x    frame=15751 fps=477 q=-0.0 size=N/A time=00:10:56.94 bitrate=N/A speed=19.9x    frame=15984 fps=477 q=-0.0 size=N/A time=00:11:06.66 bitrate=N/A speed=19.9x    frame=16198 fps=476 q=-0.0 size=N/A time=00:11:15.59 bitrate=N/A speed=19.9x    frame=16420 fps=475 q=-0.0 size=N/A time=00:11:24.85 bitrate=N/A speed=19.8x    frame=16672 fps=475 q=-0.0 size=N/A time=00:11:35.36 bitrate=N/A speed=19.8x    frame=16911 fps=475 q=-0.0 size=N/A time=00:11:45.32 bitrate=N/A speed=19.8x    frame=17178 fps=476 q=-0.0 size=N/A time=00:11:56.46 bitrate=N/A speed=19.8x    frame=17433 fps=476 q=-0.0 size=N/A time=00:12:07.10 bitrate=N/A speed=19.9x    frame=17685 fps=476 q=-0.0 size=N/A time=00:12:17.61 bitrate=N/A speed=19.9x    frame=17961 fps=477 q=-0.0 size=N/A time=00:12:29.12 bitrate=N/A speed=19.9x    frame=18224 fps=477 q=-0.0 size=N/A time=00:12:40.09 bitrate=N/A speed=19.9x    frame=18478 fps=478 q=-0.0 size=N/A time=00:12:50.68 bitrate=N/A speed=19.9x    frame=18716 fps=477 q=-0.0 size=N/A time=00:13:00.61 bitrate=N/A speed=19.9x    frame=19004 fps=478 q=-0.0 size=N/A time=00:13:12.62 bitrate=N/A speed=  20x    frame=19291 fps=479 q=-0.0 size=N/A time=00:13:24.59 bitrate=N/A speed=  20x    frame=19540 fps=480 q=-0.0 size=N/A time=00:13:35.02 bitrate=N/A speed=  20x    frame=19777 fps=479 q=-0.0 size=N/A time=00:13:44.86 bitrate=N/A speed=  20x    frame=19980 fps=478 q=-0.0 size=N/A time=00:13:53.33 bitrate=N/A speed=19.9x    frame=20236 fps=478 q=-0.0 size=N/A time=00:14:04.00 bitrate=N/A speed=19.9x    frame=20484 fps=478 q=-0.0 size=N/A time=00:14:14.35 bitrate=N/A speed=  20x    frame=20724 fps=478 q=-0.0 size=N/A time=00:14:24.36 bitrate=N/A speed=19.9x    frame=20979 fps=479 q=-0.0 size=N/A time=00:14:34.99 bitrate=N/A speed=  20x    frame=21235 fps=479 q=-0.0 size=N/A time=00:14:45.67 bitrate=N/A speed=  20x    frame=21463 fps=478 q=-0.0 size=N/A time=00:14:55.18 bitrate=N/A speed=19.9x    frame=21727 fps=479 q=-0.0 size=N/A time=00:15:06.19 bitrate=N/A speed=  20x    frame=21998 fps=479 q=-0.0 size=N/A time=00:15:17.49 bitrate=N/A speed=  20x    frame=22240 fps=479 q=-0.0 size=N/A time=00:15:27.59 bitrate=N/A speed=  20x    frame=22508 fps=479 q=-0.0 size=N/A time=00:15:38.77 bitrate=N/A speed=  20x    frame=22734 fps=479 q=-0.0 size=N/A time=00:15:48.19 bitrate=N/A speed=  20x    frame=22990 fps=479 q=-0.0 size=N/A time=00:15:58.87 bitrate=N/A speed=  20x    frame=23244 fps=479 q=-0.0 size=N/A time=00:16:09.46 bitrate=N/A speed=  20x    frame=23475 fps=479 q=-0.0 size=N/A time=00:16:19.10 bitrate=N/A speed=  20x    frame=23681 fps=478 q=-0.0 size=N/A time=00:16:27.69 bitrate=N/A speed=19.9x    frame=23929 fps=478 q=-0.0 size=N/A time=00:16:38.03 bitrate=N/A speed=19.9x    frame=24150 fps=478 q=-0.0 size=N/A time=00:16:47.25 bitrate=N/A speed=19.9x    frame=24392 fps=478 q=-0.0 size=N/A time=00:16:57.34 bitrate=N/A speed=19.9x    frame=24604 fps=477 q=-0.0 size=N/A time=00:17:06.19 bitrate=N/A speed=19.9x    frame=24859 fps=477 q=-0.0 size=N/A time=00:17:16.82 bitrate=N/A speed=19.9x    frame=25082 fps=477 q=-0.0 size=N/A time=00:17:26.12 bitrate=N/A speed=19.9x    frame=25324 fps=477 q=-0.0 size=N/A time=00:17:36.22 bitrate=N/A speed=19.9x    frame=25562 fps=476 q=-0.0 size=N/A time=00:17:46.14 bitrate=N/A speed=19.9x    frame=25820 fps=477 q=-0.0 size=N/A time=00:17:56.90 bitrate=N/A speed=19.9x    frame=26076 fps=477 q=-0.0 size=N/A time=00:18:07.58 bitrate=N/A speed=19.9x    frame=26324 fps=477 q=-0.0 size=N/A time=00:18:17.93 bitrate=N/A speed=19.9x    frame=26580 fps=477 q=-0.0 size=N/A time=00:18:28.60 bitrate=N/A speed=19.9x    frame=26843 fps=477 q=-0.0 size=N/A time=00:18:39.57 bitrate=N/A speed=19.9x    frame=27091 fps=477 q=-0.0 size=N/A time=00:18:49.92 bitrate=N/A speed=19.9x    frame=27334 fps=477 q=-0.0 size=N/A time=00:19:00.05 bitrate=N/A speed=19.9x    frame=27534 fps=477 q=-0.0 size=N/A time=00:19:08.39 bitrate=N/A speed=19.9x    frame=27789 fps=477 q=-0.0 size=N/A time=00:19:19.03 bitrate=N/A speed=19.9x    frame=28030 fps=477 q=-0.0 size=N/A time=00:19:29.08 bitrate=N/A speed=19.9x    frame=28264 fps=476 q=-0.0 size=N/A time=00:19:38.84 bitrate=N/A speed=19.9x    frame=28496 fps=476 q=-0.0 size=N/A time=00:19:48.52 bitrate=N/A speed=19.9x    frame=28752 fps=476 q=-0.0 size=N/A time=00:19:59.19 bitrate=N/A speed=19.9x    frame=28971 fps=476 q=-0.0 size=N/A time=00:20:08.33 bitrate=N/A speed=19.9x    frame=29211 fps=476 q=-0.0 size=N/A time=00:20:18.34 bitrate=N/A speed=19.8x    frame=29433 fps=476 q=-0.0 size=N/A time=00:20:27.60 bitrate=N/A speed=19.8x    frame=29695 fps=476 q=-0.0 size=N/A time=00:20:38.52 bitrate=N/A speed=19.8x    frame=29955 fps=476 q=-0.0 size=N/A time=00:20:49.37 bitrate=N/A speed=19.9x    frame=30163 fps=475 q=-0.0 size=N/A time=00:20:58.04 bitrate=N/A speed=19.8x    frame=30369 fps=475 q=-0.0 size=N/A time=00:21:06.64 bitrate=N/A speed=19.8x    frame=30581 fps=474 q=-0.0 size=N/A time=00:21:15.48 bitrate=N/A speed=19.8x    frame=30835 fps=474 q=-0.0 size=N/A time=00:21:26.07 bitrate=N/A speed=19.8x    frame=31080 fps=474 q=-0.0 size=N/A time=00:21:36.29 bitrate=N/A speed=19.8x    frame=31354 fps=475 q=-0.0 size=N/A time=00:21:47.72 bitrate=N/A speed=19.8x    frame=31606 fps=475 q=-0.0 size=N/A time=00:21:58.23 bitrate=N/A speed=19.8x    frame=31854 fps=475 q=-0.0 size=N/A time=00:22:08.57 bitrate=N/A speed=19.8x    frame=32109 fps=475 q=-0.0 size=N/A time=00:22:19.21 bitrate=N/A speed=19.8x    frame=32340 fps=475 q=-0.0 size=N/A time=00:22:28.84 bitrate=N/A speed=19.8x    frame=32551 fps=474 q=-0.0 size=N/A time=00:22:37.64 bitrate=N/A speed=19.8x    frame=32778 fps=474 q=-0.0 size=N/A time=00:22:47.11 bitrate=N/A speed=19.8x    frame=33015 fps=474 q=-0.0 size=N/A time=00:22:57.00 bitrate=N/A speed=19.8x    frame=33230 fps=474 q=-0.0 size=N/A time=00:23:05.96 bitrate=N/A speed=19.8x    frame=33473 fps=474 q=-0.0 size=N/A time=00:23:16.10 bitrate=N/A speed=19.8x    frame=33675 fps=473 q=-0.0 size=N/A time=00:23:24.52 bitrate=N/A speed=19.7x    frame=33909 fps=473 q=-0.0 size=N/A time=00:23:34.28 bitrate=N/A speed=19.7x    frame=34141 fps=473 q=-0.0 size=N/A time=00:23:43.96 bitrate=N/A speed=19.7x    [Parsed_psnr_10 @ 000002304ce91b80] PSNR y:47.963306 u:50.236922 v:50.084370 average:48.579741 min:40.796399 max:inf
[out#0/null @ 000002303fa7f580] video:14697KiB audio:267516KiB subtitle:0KiB other streams:0KiB global headers:0KiB muxing overhead: unknown
frame=34205 fps=473 q=-0.0 Lsize=N/A time=00:23:46.63 bitrate=N/A speed=19.7x    
